<svg width="576" height="667" xmlns="http://www.w3.org/2000/svg" xmlns:xlink="http://www.w3.org/1999/xlink" xml:space="preserve" overflow="hidden"><defs><clipPath id="clip0"><rect x="1704" y="642" width="576" height="667"/></clipPath><clipPath id="clip1"><rect x="2064" y="843" width="189" height="183"/></clipPath><clipPath id="clip2"><rect x="2064" y="843" width="189" height="183"/></clipPath><clipPath id="clip3"><rect x="2064" y="843" width="189" height="183"/></clipPath></defs><g clip-path="url(#clip0)" transform="translate(-1704 -642)"><path d="M1992 645.5 2277.5 788.25 2277.5 1162.75 1992 1305.5 1706.5 1162.75 1706.5 788.25Z" stroke="#000000" stroke-width="4.58333" stroke-miterlimit="8" fill="#FFFFFF" fill-rule="evenodd"/><path d="M2056.18 878.481 2177.75 1017.87 2167.39 1026.91 2045.82 887.519ZM2183.59 1003.65 2195.16 1048.3 2152.5 1030.77Z" fill="#4472C4"/><rect x="1737.5" y="1048.5" width="103" height="99" stroke="#2F528F" stroke-width="4.58333" stroke-miterlimit="8" fill="#4472C4"/><rect x="1871.5" y="1048.5" width="103" height="99" stroke="#2F528F" stroke-width="4.58333" stroke-miterlimit="8" fill="#4472C4"/><rect x="2010.5" y="1048.5" width="103" height="99" stroke="#2F528F" stroke-width="4.58333" stroke-miterlimit="8" fill="#4472C4"/><rect x="2144.5" y="1048.5" width="103" height="99" stroke="#2F528F" stroke-width="4.58333" stroke-miterlimit="8" fill="#4472C4"/><path d="M5.19986-4.49745 125.611 134.719 115.211 143.714-5.19986 4.49745ZM131.513 120.524 142.898 165.216 100.314 147.509Z" fill="#4472C4" transform="matrix(-1 0 0 1 1931.9 883)"/><path d="M6.17315-3.02619 60.3938 107.579 48.0475 113.631-6.17315 3.02619ZM69.7139 95.3534 69.3516 141.471 32.675 113.511Z" fill="#4472C4" transform="matrix(-1 0 0 1 1991.35 906)"/><path d="M1997.17 902.961 2051.69 1013.6 2039.35 1019.68 1984.83 909.039ZM2060.98 1001.35 2060.72 1047.47 2023.98 1019.59Z" fill="#4472C4"/><path d="M1907.5 825.5C1907.5 780.765 1945.33 744.5 1992 744.5 2038.67 744.5 2076.5 780.765 2076.5 825.5 2076.5 870.235 2038.67 906.5 1992 906.5 1945.33 906.5 1907.5 870.235 1907.5 825.5Z" stroke="#AE5A21" stroke-width="4.58333" stroke-miterlimit="8" fill="#ED7D31" fill-rule="evenodd"/><g clip-path="url(#clip1)"><g clip-path="url(#clip2)"><g clip-path="url(#clip3)"><path d="M143.292 88.6147C137.07 88.6147 131.979 83.524 131.979 77.3022 131.979 71.0803 137.07 65.9896 143.292 65.9896 149.514 65.9896 154.604 71.0803 154.604 77.3022 154.604 83.524 149.514 88.6147 143.292 88.6147ZM99.3615 48.2667C93.5168 46.0042 90.8772 39.4052 93.1397 33.5604 95.4022 27.7157 102.001 25.0761 107.846 27.3386 113.691 29.6011 116.33 36.2 114.068 42.0448 111.805 47.7011 105.206 50.5292 99.3615 48.2667ZM94.2709 92.3855C91.0657 92.3855 88.6147 89.9345 88.6147 86.7292 88.6147 83.524 91.0657 81.073 94.2709 81.073 97.4761 81.073 99.9272 83.524 99.9272 86.7292 99.9272 89.9345 97.4761 92.3855 94.2709 92.3855ZM143.292 54.6771C138.39 54.6771 133.865 56.1855 130.094 58.8251L111.805 69.0063 121.987 50.7178C122.929 49.2094 123.872 47.7011 124.626 46.0042 129.34 34.5032 123.683 21.3052 112.182 16.5917 100.681 11.8781 87.4834 17.5344 82.7699 29.0354 78.0563 40.5365 83.7126 53.7344 95.2136 58.448 97.4761 59.3907 99.7386 59.7678 102.001 59.9563L85.0324 76.9251 80.8845 86.1636 26.3959 116.896 15.0833 135.75 69.7605 111.24 45.25 165.917 64.1042 154.604 94.4595 100.304 103.698 96.1563 120.667 79.1876C121.609 90.8772 131.414 99.9272 143.292 99.9272 155.736 99.9272 165.917 89.7459 165.917 77.3022 165.917 64.8584 155.736 54.6771 143.292 54.6771Z" stroke="#000000" stroke-width="1.88542" fill="#FFFFFF" transform="matrix(1.03867 0 0 1 2065 844)"/></g></g></g><path d="M2051 883 2127.75 971.008" stroke="#4472C4" stroke-width="13.75" stroke-miterlimit="8" fill="none" fill-rule="evenodd"/></g></svg>