<?xml version="1.0" encoding="UTF-8" standalone="no"?>
<svg
   width="1020.2585"
   height="1180.8347"
   xml:space="preserve"
   overflow="hidden"
   version="1.1"
   id="svg72"
   sodipodi:docname="lessSEM.svg"
   inkscape:version="1.2 (dc2aedaf03, 2022-05-15)"
   xmlns:inkscape="http://www.inkscape.org/namespaces/inkscape"
   xmlns:sodipodi="http://sodipodi.sourceforge.net/DTD/sodipodi-0.dtd"
   xmlns="http://www.w3.org/2000/svg"
   xmlns:svg="http://www.w3.org/2000/svg"><defs
     id="defs76"><inkscape:path-effect
       effect="bspline"
       id="path-effect8329"
       is_visible="true"
       lpeversion="1"
       weight="33.333333"
       steps="2"
       helper_size="0"
       apply_no_weight="true"
       apply_with_weight="true"
       only_selected="false" /><inkscape:path-effect
       effect="bspline"
       id="path-effect7383"
       is_visible="true"
       lpeversion="1"
       weight="33.333333"
       steps="2"
       helper_size="0"
       apply_no_weight="true"
       apply_with_weight="true"
       only_selected="false" /><inkscape:path-effect
       effect="bspline"
       id="path-effect7262"
       is_visible="true"
       lpeversion="1"
       weight="33.333333"
       steps="2"
       helper_size="0"
       apply_no_weight="true"
       apply_with_weight="true"
       only_selected="false" /><inkscape:path-effect
       effect="bspline"
       id="path-effect7204"
       is_visible="true"
       lpeversion="1"
       weight="33.333333"
       steps="2"
       helper_size="0"
       apply_no_weight="true"
       apply_with_weight="true"
       only_selected="false" /><inkscape:path-effect
       effect="bspline"
       id="path-effect7200"
       is_visible="true"
       lpeversion="1"
       weight="33.333333"
       steps="2"
       helper_size="0"
       apply_no_weight="true"
       apply_with_weight="true"
       only_selected="false" /><inkscape:path-effect
       effect="bspline"
       id="path-effect7196"
       is_visible="true"
       lpeversion="1"
       weight="33.333333"
       steps="2"
       helper_size="0"
       apply_no_weight="true"
       apply_with_weight="true"
       only_selected="false" /><inkscape:path-effect
       effect="bspline"
       id="path-effect7192"
       is_visible="true"
       lpeversion="1"
       weight="33.333333"
       steps="2"
       helper_size="0"
       apply_no_weight="true"
       apply_with_weight="true"
       only_selected="false" /><inkscape:path-effect
       effect="spiro"
       id="path-effect6413"
       is_visible="true"
       lpeversion="1" /><inkscape:path-effect
       effect="spiro"
       id="path-effect6409"
       is_visible="true"
       lpeversion="1" /></defs><sodipodi:namedview
     id="namedview74"
     pagecolor="#505050"
     bordercolor="#eeeeee"
     borderopacity="1"
     inkscape:showpageshadow="0"
     inkscape:pageopacity="0"
     inkscape:pagecheckerboard="0"
     inkscape:deskcolor="#505050"
     showgrid="true"
     inkscape:zoom="1"
     inkscape:cx="682.99998"
     inkscape:cy="592.99998"
     inkscape:window-width="2560"
     inkscape:window-height="1009"
     inkscape:window-x="-8"
     inkscape:window-y="-8"
     inkscape:window-maximized="1"
     inkscape:current-layer="g70" /><g
     transform="translate(-1481.8707,-385.08266)"
     id="g70"><g
       id="g1358"
       inkscape:label="ink_ext_XXXXXX2"
       transform="matrix(1.3333333,0,0,-1.3333333,624.52064,2262.4186)"><path
         style="opacity:0.9;fill:#f2f2f2;stroke:#000000;stroke-width:0.75"
         d="m 1025.6415,1407.569 -380.37749,-219.5499 -1.8755,-444.51413 382.22299,-220.69598 377.78,218.17801 4.44,2.51797 V 1186.929 Z"
         id="path1773" /><g
         id="g1360"
         transform="matrix(0.1,0,0,0.1,1161,-33.788768)"><path
           d="m -5026.1195,7859.5374 3672.23,-2120.37 3672.2,2120.37 v 4261.0396 l -3671.9,2119.8 -3672.53,-2119.8 z m 3672.23,-2293.56 -3822.23,2206.96 v 4434.3396 l 37.51,21.6 3785.02,2184.7 37.5,-21.6 3784.4,-2184.8 V 7772.9374"
           style="fill:#000000;fill-opacity:1;fill-rule:nonzero;stroke:none"
           id="path1362" /></g></g><path
       d="m 2080.9318,848.58761 185.1825,212.32539 -15.781,13.7703 -185.1825,-212.32849 z m 194.0783,190.66469 17.6241,68.0134 -64.9821,-26.7027 z"
       fill="#4472c4"
       id="path42"
       style="stroke-width:1.52326" /><rect
       x="1595.5"
       y="1107.5704"
       width="156.89555"
       height="150.80252"
       stroke="#2f528f"
       stroke-width="5.15457"
       stroke-miterlimit="8"
       fill="#4472c4"
       id="rect44" /><rect
       x="1799.6166"
       y="1107.5704"
       width="156.89555"
       height="150.80252"
       stroke="#2f528f"
       stroke-width="5.15457"
       stroke-miterlimit="8"
       fill="#4472c4"
       id="rect46" /><rect
       x="2011.3494"
       y="1107.5704"
       width="156.89555"
       height="150.80252"
       stroke="#2f528f"
       stroke-width="5.15457"
       stroke-miterlimit="8"
       fill="#4472c4"
       id="rect48" /><rect
       x="2215.4661"
       y="1107.5704"
       width="156.89555"
       height="150.80252"
       stroke="#2f528f"
       stroke-width="5.15457"
       stroke-miterlimit="8"
       fill="#4472c4"
       id="rect50" /><path
       d="m 1883.7006,848.62043 -183.4173,212.06257 15.842,13.7017 183.4168,-212.06271 z m -192.4075,190.43987 -17.3423,68.0774 64.8664,-26.9723 z"
       fill="#4472c4"
       id="path52"
       style="stroke-width:1.52326" /><path
       d="m 1972.7757,885.89648 -82.5921,168.48022 18.8067,9.2187 82.592,-168.4796 z m -96.789,149.85752 0.5519,70.249 55.8679,-42.5903 z"
       fill="#4472c4"
       id="path54"
       style="stroke-width:1.52326" /><path
       d="m 1991.0444,885.87696 83.048,168.53164 -18.7971,9.2615 -83.0479,-168.53478 z m 97.199,149.87184 -0.396,70.2526 -55.9644,-42.4684 z"
       fill="#4472c4"
       id="path56"
       style="stroke-width:1.52326" /><g
       id="g66"
       transform="matrix(1.5232578,0,0,1.5232578,-1051.1605,-489.56546)"><g
         id="g64"><g
           id="g62"><path
             d="m 143.292,88.6147 c -6.222,0 -11.313,-5.0907 -11.313,-11.3125 0,-6.2219 5.091,-11.3126 11.313,-11.3126 6.222,0 11.312,5.0907 11.312,11.3126 0,6.2218 -5.09,11.3125 -11.312,11.3125 z M 99.3615,48.2667 c -5.8447,-2.2625 -8.4843,-8.8615 -6.2218,-14.7063 2.2625,-5.8447 8.8613,-8.4843 14.7063,-6.2218 5.845,2.2625 8.484,8.8614 6.222,14.7062 -2.263,5.6563 -8.862,8.4844 -14.7065,6.2219 z m -5.0906,44.1188 c -3.2052,0 -5.6562,-2.451 -5.6562,-5.6563 0,-3.2052 2.451,-5.6562 5.6562,-5.6562 3.2052,0 5.6563,2.451 5.6563,5.6562 0,3.2053 -2.4511,5.6563 -5.6563,5.6563 z M 143.292,54.6771 c -4.902,0 -9.427,1.5084 -13.198,4.148 l -18.289,10.1812 10.182,-18.2885 c 0.942,-1.5084 1.885,-3.0167 2.639,-4.7136 4.714,-11.501 -0.943,-24.699 -12.444,-29.4125 -11.501,-4.7136 -24.6986,0.9427 -29.4121,12.4437 -4.7136,11.5011 0.9427,24.699 12.4437,29.4126 2.2625,0.9427 4.525,1.3198 6.7874,1.5083 L 85.0324,76.9251 80.8845,86.1636 26.3959,116.896 15.0833,135.75 69.7605,111.24 45.25,165.917 l 18.8542,-11.313 30.3553,-54.3 9.2385,-4.1477 16.969,-16.9687 c 0.942,11.6896 10.747,20.7396 22.625,20.7396 12.444,0 22.625,-10.1813 22.625,-22.625 0,-12.4438 -10.181,-22.6251 -22.625,-22.6251 z"
             stroke="#000000"
             stroke-width="1.88542"
             fill="#ffffff"
             transform="matrix(1.03867,0,0,1,2065,844)"
             id="path60" /></g></g></g><path
       d="M 2072.9259,855.37052 2188.1728,987.3957"
       stroke="#4472c4"
       stroke-width="20.9868"
       stroke-miterlimit="8"
       fill="none"
       fill-rule="evenodd"
       id="path68" /><path
       d="m 1854.4538,767.88388 c 0,-68.14293 57.6249,-123.38388 128.7153,-123.38388 71.0905,0 128.7153,55.24095 128.7153,123.38388 0,68.14294 -57.6248,123.38389 -128.7153,123.38389 -71.0904,0 -128.7153,-55.24095 -128.7153,-123.38389 z"
       stroke="#ae5a21"
       stroke-width="5.15457"
       stroke-miterlimit="8"
       fill="#ed7d31"
       fill-rule="evenodd"
       id="path58" /></g></svg>
