<svg width="1248" height="1002" xmlns="http://www.w3.org/2000/svg" xmlns:xlink="http://www.w3.org/1999/xlink" xml:space="preserve" overflow="hidden"><defs><clipPath id="clip0"><rect x="1617" y="630" width="1248" height="1002"/></clipPath><clipPath id="clip1"><rect x="2399" y="878" width="467" height="448"/></clipPath><clipPath id="clip2"><rect x="2399" y="878" width="467" height="448"/></clipPath><clipPath id="clip3"><rect x="2399" y="878" width="467" height="448"/></clipPath></defs><g clip-path="url(#clip0)" transform="translate(-1617 -630)"><path d="M2371.18 969.481 2704.89 1352.12 2694.53 1361.16 2360.82 978.519ZM2710.74 1337.9 2722.3 1382.55 2679.65 1365.01Z" fill="#4472C4"/><rect x="1619.5" y="1383.5" width="255" height="244" stroke="#2F528F" stroke-width="4.58333" stroke-miterlimit="8" fill="#4472C4"/><rect x="1945.5" y="1383.5" width="255" height="244" stroke="#2F528F" stroke-width="4.58333" stroke-miterlimit="8" fill="#4472C4"/><rect x="2272.5" y="1385.5" width="255" height="244" stroke="#2F528F" stroke-width="4.58333" stroke-miterlimit="8" fill="#4472C4"/><rect x="2595.5" y="1383.5" width="255" height="244" stroke="#2F528F" stroke-width="4.58333" stroke-miterlimit="8" fill="#4472C4"/><path d="M5.38119-4.27884 308.842 377.362 298.08 385.92-5.38119 4.27884ZM315.326 363.423 324.855 408.547 283.039 389.096Z" fill="#4472C4" transform="matrix(-1 0 0 1 2070.85 974)"/><path d="M6.34482-2.64744 139.09 315.488 126.4 320.783-6.34482 2.64744ZM149.132 303.848 145.982 349.86 111.063 319.733Z" fill="#4472C4" transform="matrix(-1 0 0 1 2218.98 1033)"/><path d="M2225.12 1029.86 2390 1351.25 2377.76 1357.52 2212.88 1036.14ZM2399.09 1338.85 2399.57 1384.97 2362.39 1357.68Z" fill="#4472C4"/><path d="M2010.5 833C2010.5 722.267 2104.07 632.5 2219.5 632.5 2334.93 632.5 2428.5 722.267 2428.5 833 2428.5 943.733 2334.93 1033.5 2219.5 1033.5 2104.07 1033.5 2010.5 943.733 2010.5 833Z" stroke="#AE5A21" stroke-width="4.58333" stroke-miterlimit="8" fill="#ED7D31" fill-rule="evenodd"/><g clip-path="url(#clip1)"><g clip-path="url(#clip2)"><g clip-path="url(#clip3)"><path d="M353.875 218.844C338.509 218.844 325.937 206.272 325.937 190.906 325.937 175.541 338.509 162.969 353.875 162.969 369.241 162.969 381.812 175.541 381.812 190.906 381.812 206.272 369.241 218.844 353.875 218.844ZM245.384 119.2C230.95 113.612 224.431 97.3156 230.019 82.8812 235.606 68.4469 251.903 61.9281 266.337 67.5156 280.772 73.1031 287.291 89.4 281.703 103.834 276.116 117.803 259.819 124.787 245.384 119.2ZM232.812 228.156C224.897 228.156 218.844 222.103 218.844 214.187 218.844 206.272 224.897 200.219 232.812 200.219 240.728 200.219 246.781 206.272 246.781 214.187 246.781 222.103 240.728 228.156 232.812 228.156ZM353.875 135.031C341.769 135.031 330.594 138.756 321.281 145.275L276.116 170.419 301.259 125.253C303.587 121.528 305.916 117.803 307.778 113.612 319.419 85.2093 305.45 52.6156 277.047 40.975 248.644 29.3344 216.05 43.3031 204.409 71.7062 192.769 100.109 206.737 132.703 235.141 144.344 240.728 146.672 246.316 147.603 251.903 148.069L209.997 189.975 199.753 212.791 65.1875 288.687 37.25 335.25 172.281 274.719 111.75 409.75 158.312 381.812 233.278 247.712 256.094 237.469 298 195.562C300.328 224.431 324.54 246.781 353.875 246.781 384.606 246.781 409.75 221.637 409.75 190.906 409.75 160.175 384.606 135.031 353.875 135.031Z" stroke="#000000" stroke-width="4.65625" fill="#FFFFFF" transform="matrix(1.04251 0 0 1 2399 879)"/></g></g></g><path d="M2366 974 2555.7 1191.52" stroke="#4472C4" stroke-width="13.75" stroke-miterlimit="8" fill="none" fill-rule="evenodd"/></g></svg>